<svg width="124" height="124" viewBox="0 0 124 124" fill="none" xmlns="http://www.w3.org/2000/svg">
<rect width="124" height="124" rx="62" fill="#D0D0D0"/>
<path fill-rule="evenodd" clip-rule="evenodd" d="M80.6008 49.6C80.6008 59.8725 72.2733 68.2 62.0008 68.2C51.7283 68.2 43.4008 59.8725 43.4008 49.6C43.4008 39.3275 51.7283 31 62.0008 31C72.2733 31 80.6008 39.3275 80.6008 49.6ZM74.4008 49.6C74.4008 56.4483 68.8491 62 62.0008 62C55.1524 62 49.6008 56.4483 49.6008 49.6C49.6008 42.7517 55.1524 37.2 62.0008 37.2C68.8491 37.2 74.4008 42.7517 74.4008 49.6Z" fill="#A3A3A3"/>
<path d="M62.0008 77.5C41.9302 77.5 24.8295 89.3681 18.3154 105.995C19.9023 107.571 21.574 109.062 23.3229 110.459C28.1736 95.1939 43.3906 83.7 62.0008 83.7C80.611 83.7 95.8279 95.1939 100.679 110.459C102.428 109.062 104.099 107.571 105.686 105.995C99.1721 89.3681 82.0714 77.5 62.0008 77.5Z" fill="#A3A3A3"/>
</svg>
