<svg width="27" height="26" viewBox="0 0 27 26" fill="none" xmlns="http://www.w3.org/2000/svg">
<path d="M24 3.22222H6.88889C6.24058 3.22222 5.61883 3.47975 5.16041 3.93818C4.70198 4.3966 4.44444 5.01835 4.44444 5.66666C4.44444 6.31497 4.70198 6.93672 5.16041 7.39514C5.61883 7.85357 6.24058 8.1111 6.88889 8.1111H24V24C24 24.3241 23.8712 24.635 23.642 24.8642C23.4128 25.0934 23.1019 25.2222 22.7778 25.2222H6.88889C5.59227 25.2222 4.34877 24.7071 3.43192 23.7903C2.51508 22.8734 2 21.6299 2 20.3333V5.66666C2 4.37005 2.51508 3.12654 3.43192 2.20969C4.34877 1.29285 5.59227 0.777771 6.88889 0.777771H22.7778C23.1019 0.777771 23.4128 0.90654 23.642 1.13575C23.8712 1.36496 24 1.67584 24 1.99999V3.22222ZM22.7778 6.88888H6.88889C6.56474 6.88888 6.25386 6.76011 6.02465 6.5309C5.79544 6.30169 5.66667 5.99081 5.66667 5.66666C5.66667 5.34251 5.79544 5.03163 6.02465 4.80242C6.25386 4.57321 6.56474 4.44444 6.88889 4.44444H22.7778V6.88888Z" fill="black"/>
<path d="M14.8945 20.7778H13.3594V13.7817H13.3125L11.332 15.0473V13.6528L13.4297 12.2934H14.8945V20.7778Z" fill="white"/>
</svg>
