<svg width="50" height="50" viewBox="0 0 50 50" fill="none" xmlns="http://www.w3.org/2000/svg">
<path fill-rule="evenodd" clip-rule="evenodd" d="M25 12.7273C18.222 12.7273 12.7273 18.222 12.7273 25C12.7273 31.778 18.222 37.2727 25 37.2727C31.778 37.2727 37.2727 31.778 37.2727 25C37.2727 18.222 31.778 12.7273 25 12.7273ZM10 25C10 16.7157 16.7157 10 25 10C33.2843 10 40 16.7157 40 25C40 33.2843 33.2843 40 25 40C16.7157 40 10 33.2843 10 25ZM24.9999 18.1818C25.753 18.1818 26.3635 18.7923 26.3635 19.5454V25C26.3635 25.7531 25.753 26.3636 24.9999 26.3636C24.2468 26.3636 23.6362 25.7531 23.6362 25V19.5454C23.6362 18.7923 24.2468 18.1818 24.9999 18.1818ZM24.9999 29.0909C24.2468 29.0909 23.6362 29.7014 23.6362 30.4545C23.6362 31.2076 24.2468 31.8181 24.9999 31.8181H25.0135C25.7666 31.8181 26.3771 31.2076 26.3771 30.4545C26.3771 29.7014 25.7666 29.0909 25.0135 29.0909H24.9999Z" fill="#42688B"/>
</svg>
