<svg width="28" height="28" viewBox="0 0 28 28" fill="none" xmlns="http://www.w3.org/2000/svg">
<path fill-rule="evenodd" clip-rule="evenodd" d="M27.4142 3.41421C28.1953 2.63317 28.1953 1.36683 27.4142 0.585786C26.6332 -0.195262 25.3668 -0.195262 24.5858 0.585786L14 11.1716L3.41421 0.585786C2.63317 -0.195262 1.36683 -0.195262 0.585786 0.585786C-0.195262 1.36683 -0.195262 2.63317 0.585786 3.41421L11.1716 14L0.585786 24.5858C-0.195262 25.3668 -0.195262 26.6332 0.585786 27.4142C1.36683 28.1953 2.63317 28.1953 3.41421 27.4142L14 16.8284L24.5858 27.4142C25.3668 28.1953 26.6332 28.1953 27.4142 27.4142C28.1953 26.6332 28.1953 25.3668 27.4142 24.5858L16.8284 14L27.4142 3.41421Z" fill="#42688B"/>
</svg>
