<svg width="155" height="85" viewBox="0 0 155 85" fill="none" xmlns="http://www.w3.org/2000/svg">
<path d="M137.227 9.95969C136.077 9.95969 134.927 10.0524 133.777 10.2379C132.665 10.3863 131.533 10.4605 130.383 10.4605C129.753 10.4605 129.215 10.1823 128.77 9.62585C128.325 9.03235 128.102 8.43885 128.102 7.84535C128.102 6.69544 128.677 6.06484 129.827 5.95356C130.717 5.84228 131.626 5.731 132.553 5.61971C133.518 5.50843 134.464 5.45279 135.391 5.45279C136.763 5.45279 137.932 5.52698 138.896 5.67535C139.861 5.78664 140.64 6.06484 141.233 6.50996C141.827 6.95509 142.253 7.62278 142.513 8.51303C142.81 9.40328 142.958 10.6088 142.958 12.1297C142.958 13.5392 142.624 14.5593 141.957 15.1899C141.289 15.8205 140.324 16.3398 139.063 16.7479L131.274 19.1961C130.754 19.3815 130.291 19.6226 129.883 19.9194C129.512 20.179 129.326 20.6242 129.326 21.2548C129.326 21.4031 129.345 21.4959 129.382 21.533C129.456 21.6442 129.586 21.7184 129.771 21.7555C129.957 21.7555 130.087 21.7555 130.161 21.7555C131.311 21.7555 132.461 21.737 133.61 21.6999C134.76 21.6628 135.91 21.6072 137.06 21.533C138.136 21.4588 139.212 21.366 140.287 21.2548C141.363 21.1064 142.439 21.0322 143.515 21.0322C144.256 21.0322 144.85 21.2733 145.295 21.7555C145.777 22.2377 146.018 22.8683 146.018 23.6473C146.018 24.1666 145.889 24.6118 145.629 24.9827C145.369 25.3165 144.961 25.5206 144.405 25.5947C143.292 25.6689 142.179 25.7617 141.066 25.8729C139.954 25.9471 138.822 26.0213 137.672 26.0955V30.2686C139.23 30.2686 140.899 30.25 142.68 30.2129C144.46 30.1758 146.148 30.25 147.743 30.4355C148.04 30.4726 148.318 30.5653 148.578 30.7137C148.875 30.8621 149.116 31.0475 149.301 31.2701C149.487 31.4927 149.598 31.7523 149.635 32.0491C149.709 32.3087 149.746 32.5869 149.746 32.8837C149.746 33.403 149.542 33.9038 149.134 34.386C148.726 34.8311 148.244 35.0537 147.688 35.0537C146.834 35.0537 145.963 35.0166 145.072 34.9424C144.182 34.8682 143.292 34.8311 142.402 34.8311C140.25 34.8311 138.099 34.8497 135.947 34.8867C133.833 34.8867 131.7 34.9609 129.549 35.1093C128.584 35.1835 127.62 35.2948 126.655 35.4431C125.691 35.5915 124.726 35.6657 123.762 35.6657C123.131 35.6657 122.612 35.4061 122.204 34.8867C121.833 34.3674 121.648 33.811 121.648 33.2175C121.648 32.6611 121.815 32.1789 122.148 31.7709C122.482 31.3628 122.927 31.1217 123.484 31.0475C125.042 30.7879 126.6 30.6395 128.158 30.6024C129.753 30.5653 131.329 30.4726 132.887 30.3242V26.3181C131.96 26.3181 130.995 26.3181 129.994 26.3181C128.992 26.3181 128.065 26.2068 127.212 25.9842C126.396 25.7246 125.709 25.2794 125.153 24.6488C124.597 23.9812 124.318 22.9982 124.318 21.6999C124.318 20.2161 124.801 18.8622 125.765 17.6381C126.767 16.414 127.954 15.5794 129.326 15.1343L137.505 12.4635C137.765 12.3893 137.95 12.2966 138.062 12.1853C138.136 11.8886 138.173 11.6475 138.173 11.462C138.173 11.2765 138.154 11.1096 138.117 10.9612C138.117 10.7758 138.099 10.5903 138.062 10.4048L137.895 10.071C137.598 9.99679 137.375 9.95969 137.227 9.95969ZM139.286 43.1772C139.323 42.7321 139.249 42.4724 139.063 42.3982C138.915 42.287 138.637 42.2313 138.229 42.2313C137.338 42.2313 136.43 42.2684 135.502 42.3426C134.575 42.3797 133.666 42.4353 132.776 42.5095C132.442 42.5466 132.108 42.6023 131.774 42.6765C131.44 42.7135 131.107 42.7321 130.773 42.7321C130.179 42.7321 129.697 42.5281 129.326 42.12C128.955 41.6749 128.77 41.1742 128.77 40.6177C128.77 40.0242 128.974 39.5235 129.382 39.1154C129.79 38.6703 130.272 38.3921 130.828 38.2808C132.275 38.0212 133.759 37.8728 135.28 37.8357C136.838 37.7986 138.358 37.7801 139.842 37.7801C142.736 37.7801 144.182 39.2267 144.182 42.12C144.182 43.0103 144.127 43.9005 144.015 44.7908C143.941 45.6811 143.867 46.5713 143.793 47.4616C143.719 48.1292 143.477 48.6671 143.069 49.0751C142.661 49.4832 142.105 49.6872 141.4 49.6872C140.732 49.6872 140.158 49.4461 139.675 48.9639C139.193 48.4816 138.952 47.9252 138.952 47.2946C138.952 46.6269 138.989 45.9407 139.063 45.2359C139.137 44.5311 139.212 43.8449 139.286 43.1772Z" fill="white"/>
<path d="M94.8854 19.7525C94.8854 17.6752 94.9039 15.635 94.941 13.632C94.9781 11.6289 95.0894 9.6073 95.2748 7.56714C95.3119 7.1962 95.3861 6.89945 95.4974 6.67689C95.6087 6.41723 95.8127 6.19467 96.1095 6.0092C96.6288 5.67535 97.1666 5.50843 97.723 5.50843C98.3907 5.50843 98.91 5.731 99.281 6.17612C99.689 6.62125 99.893 7.15911 99.893 7.7897C99.893 8.53158 99.8559 9.27346 99.7817 10.0153C99.7076 10.7201 99.6519 11.4434 99.6148 12.1853C100.579 12.1853 101.525 12.1482 102.452 12.074C103.38 11.9999 104.326 11.9628 105.29 11.9628C105.216 11.4064 105.142 10.8499 105.068 10.2935C105.031 9.70004 105.012 9.12508 105.012 8.56867C105.012 8.01227 105.235 7.54859 105.68 7.17766C106.162 6.80672 106.663 6.62125 107.182 6.62125C107.813 6.62125 108.369 6.80672 108.851 7.17766C109.333 7.54859 109.612 8.04936 109.686 8.67996C109.871 9.90405 109.983 11.1652 110.02 12.4635C110.057 13.7247 110.075 14.9674 110.075 16.1915V19.7525C110.075 21.533 109.612 22.8127 108.684 23.5917C107.794 24.3706 106.496 24.7601 104.789 24.7601H100.171C98.4649 24.7601 97.1481 24.3706 96.2207 23.5917C95.3305 22.8127 94.8854 21.533 94.8854 19.7525ZM99.5592 19.4743C99.5592 19.5855 99.5592 19.7154 99.5592 19.8637C99.5592 19.975 99.5963 20.0863 99.6705 20.1976C99.8188 20.2718 100.041 20.3089 100.338 20.3089H104.622C104.734 20.3089 104.845 20.3089 104.956 20.3089C105.105 20.3089 105.216 20.2718 105.29 20.1976C105.364 20.0863 105.401 19.975 105.401 19.8637C105.401 19.7154 105.401 19.5855 105.401 19.4743C105.401 18.9549 105.383 18.4356 105.346 17.9163C105.346 17.397 105.346 16.8777 105.346 16.3584C104.381 16.4326 103.417 16.4882 102.452 16.5253C101.488 16.5624 100.524 16.5809 99.5592 16.5809V19.4743ZM89.1544 32.0491C89.1544 31.4927 89.3213 31.0104 89.6551 30.6024C89.989 30.1944 90.4341 29.9533 90.9905 29.8791C92.9936 29.5452 95.0523 29.3412 97.1666 29.267C99.281 29.1557 101.358 29.1001 103.398 29.1001H110.075C110.928 29.1001 111.8 29.1001 112.69 29.1001C113.581 29.1001 114.434 29.1557 115.25 29.267C115.918 29.3412 116.418 29.6009 116.752 30.046C117.086 30.4911 117.253 31.0475 117.253 31.7152C117.253 32.2345 117.049 32.7353 116.641 33.2175C116.233 33.6626 115.751 33.8852 115.194 33.8852C114.341 33.8852 113.469 33.8481 112.579 33.7739C111.689 33.6997 110.799 33.6626 109.908 33.6626C107.757 33.6626 105.605 33.6812 103.454 33.7183C101.34 33.7183 99.2068 33.7925 97.0553 33.9408C96.0909 34.015 95.1265 34.1263 94.162 34.2747C93.1976 34.4231 92.2331 34.4973 91.2687 34.4973C90.6381 34.4973 90.1188 34.2376 89.7108 33.7183C89.3398 33.199 89.1544 32.6426 89.1544 32.0491ZM100.449 45.848C100.449 44.4384 100.468 43.0288 100.505 41.6193C100.542 40.1726 100.598 38.7445 100.672 37.3349C100.709 36.6302 100.969 36.0552 101.451 35.6101C101.97 35.1649 102.582 34.9424 103.287 34.9424C103.955 34.9424 104.511 35.1464 104.956 35.5544C105.439 35.9254 105.68 36.4632 105.68 37.168C105.68 37.8728 105.661 38.5776 105.624 39.2824C105.587 39.9501 105.568 40.6363 105.568 41.3411V45.848C105.568 46.5898 105.346 47.2204 104.901 47.7398C104.456 48.2962 103.825 48.5744 103.009 48.5744C102.156 48.5744 101.507 48.3147 101.061 47.7954C100.653 47.2761 100.449 46.6269 100.449 45.848Z" fill="white"/>
<path d="M74.3222 41.508C74.3593 41.0629 74.2851 40.8032 74.0996 40.729C73.9141 40.6177 73.6359 40.5621 73.265 40.5621C72.078 40.5621 70.8539 40.5992 69.5927 40.6734C68.3315 40.7105 67.1074 40.7661 65.9204 40.8403C65.5124 40.8774 65.1229 40.933 64.752 41.0072C64.381 41.0443 63.9915 41.0629 63.5835 41.0629C62.99 41.0629 62.5078 40.8589 62.1369 40.4508C61.7659 40.0057 61.5804 39.5049 61.5804 38.9485C61.5804 38.3179 61.7845 37.7986 62.1925 37.3906C62.6005 36.9825 63.0827 36.7229 63.6392 36.6116C64.2697 36.5003 65.0858 36.4076 66.0873 36.3334C67.0889 36.2592 68.109 36.2036 69.1476 36.1665C70.2233 36.1294 71.2619 36.1108 72.2635 36.1108C73.3021 36.1108 74.1738 36.1108 74.8786 36.1108C77.7719 36.1108 79.2186 37.5575 79.2186 40.4508C79.2186 41.6378 79.1444 42.8248 78.996 44.0118C78.8847 45.1617 78.7734 46.3116 78.6622 47.4616C78.588 48.1292 78.3469 48.6671 77.9388 49.0751C77.5308 49.4832 76.9744 49.6872 76.2696 49.6872C75.6019 49.6872 75.027 49.4461 74.5447 48.9638C74.0625 48.4816 73.8214 47.9252 73.8214 47.2946C73.8214 46.3302 73.877 45.3657 73.9883 44.4013C74.1367 43.4369 74.248 42.4724 74.3222 41.508ZM56.072 16.5809C55.1818 18.8066 54.1802 21.0322 53.0674 23.2578C51.9917 25.4835 50.7861 27.5978 49.4508 29.6009C49.154 30.046 48.8573 30.3798 48.5605 30.6024C48.2638 30.7879 47.8557 30.8806 47.3364 30.8806C46.7058 30.8806 46.1123 30.621 45.5559 30.1016C45.0366 29.5823 44.7769 29.0074 44.7769 28.3768C44.7769 28.1171 44.814 27.876 44.8882 27.6534C44.9995 27.4309 45.1108 27.2269 45.2221 27.0414C46.2236 25.3722 47.1695 23.703 48.0597 22.0337C48.9871 20.3645 49.8217 18.6396 50.5636 16.8591C49.8217 16.8221 49.0984 16.8777 48.3936 17.0261C47.6888 17.1744 46.984 17.2486 46.2792 17.2486C45.6116 17.2486 45.0737 17.0261 44.6657 16.5809C44.2947 16.0987 44.1093 15.5423 44.1093 14.9117C44.1093 14.2069 44.3689 13.6691 44.8882 13.2981C45.4075 12.9272 45.9825 12.7046 46.6131 12.6304C49.0984 12.2966 51.6393 12.0926 54.2359 12.0184C56.8324 11.9071 59.3919 11.8515 61.9143 11.8515C62.582 11.8515 63.1013 12.074 63.4722 12.5192C63.8432 12.9643 64.0286 13.5022 64.0286 14.1327C64.0286 14.7262 63.8617 15.2456 63.5279 15.6907C63.1569 16.1729 62.6191 16.414 61.9143 16.414C60.9499 16.414 59.9669 16.4511 58.9653 16.5253C58.0009 16.5624 57.0364 16.5809 56.072 16.5809ZM61.5248 31.7152C61.1539 31.7152 60.8386 31.6225 60.5789 31.437C60.3193 31.2516 60.0967 31.0104 59.9112 30.7137L55.293 24.2594C54.9592 23.8513 54.7923 23.4618 54.7923 23.0909C54.7923 22.349 55.0705 21.7741 55.6269 21.366C56.2204 20.9209 56.851 20.6984 57.5187 20.6984C57.8154 20.6984 58.1122 20.7911 58.4089 20.9766C58.7428 21.162 59.0024 21.366 59.1879 21.5886L63.9174 27.7647C64.2141 28.1357 64.3625 28.5808 64.3625 29.1001C64.3625 29.842 64.0657 30.4726 63.4722 30.9919C62.8787 31.4741 62.2296 31.7152 61.5248 31.7152ZM78.9404 30.3242C78.9404 28.7663 78.9589 27.2454 78.996 25.7617C79.0331 24.2779 79.1073 22.7571 79.2186 21.1991L72.4304 22.8127C72.5417 24.9271 72.5973 27.0414 72.5973 29.1557C72.5973 29.9347 72.3747 30.5839 71.9296 31.1032C71.4845 31.6225 70.8539 31.8821 70.0378 31.8821C69.2218 31.8821 68.5912 31.6225 68.1461 31.1032C67.7009 30.5468 67.4784 29.8976 67.4784 29.1557C67.4784 26.3737 67.4413 23.6102 67.3671 20.8653C67.2929 18.1203 67.1816 15.3568 67.0332 12.5748C66.9961 11.7587 66.922 10.9427 66.8107 10.1266C66.7365 9.31055 66.6994 8.49449 66.6994 7.67842C66.6994 7.12202 66.9034 6.6398 67.3114 6.23176C67.7195 5.82373 68.2017 5.61972 68.7581 5.61972C69.4629 5.61972 70.0378 5.84228 70.483 6.2874C70.9652 6.73253 71.2434 7.28894 71.3176 7.95663C71.3918 8.55013 71.4845 9.31055 71.5958 10.2379C71.7071 11.1652 71.7998 12.1297 71.874 13.1312C71.9482 14.0957 72.0038 15.0415 72.0409 15.9689C72.1151 16.8591 72.1522 17.5825 72.1522 18.1389L79.5524 16.3584L80.2201 10.1823C80.2943 9.81132 80.387 9.47747 80.4983 9.18072C80.6096 8.88397 80.8136 8.62431 81.1103 8.40175C81.5926 8.03081 82.1304 7.84535 82.7239 7.84535C83.4658 7.84535 83.9851 8.08645 84.2819 8.56867C84.6157 9.05089 84.7826 9.62585 84.7826 10.2935C84.7826 11.666 84.7084 13.1312 84.5601 14.6892C84.4488 16.2471 84.3561 17.7309 84.2819 19.1404C84.2077 21.0322 84.152 22.9054 84.1149 24.7601C84.0779 26.5777 84.0593 28.4324 84.0593 30.3242C84.0593 31.0661 83.8182 31.6967 83.336 32.216C82.8908 32.7353 82.2788 32.995 81.4998 32.995C80.6838 32.995 80.0532 32.7539 79.608 32.2716C79.1629 31.7523 78.9404 31.1032 78.9404 30.3242ZM50.0628 2.61511C50.0628 1.87324 50.2854 1.26119 50.7305 0.77897C51.1756 0.259657 51.7877 0 52.5666 0C52.8634 0 53.1601 0.0556411 53.4569 0.166923C53.7907 0.278203 54.0689 0.426578 54.2915 0.612047C54.5883 0.834611 54.7923 1.13136 54.9036 1.5023C55.0148 1.87324 55.0705 2.22563 55.0705 2.55947C55.0705 3.5981 55.1447 4.63673 55.293 5.67536C55.4414 6.67689 55.5156 7.67842 55.5156 8.67996C55.5156 9.38474 55.293 9.90405 54.8479 10.2379C54.4028 10.5717 53.8649 10.7387 53.2343 10.7387C52.6779 10.7387 52.1957 10.5903 51.7877 10.2935C51.4167 9.95969 51.1385 9.53311 50.9531 9.0138C50.6563 7.97517 50.4337 6.918 50.2854 5.84228C50.137 4.76656 50.0628 3.69083 50.0628 2.61511Z" fill="white"/>
<path d="M11.5977 25.8729C9.89138 25.8729 8.57455 25.4835 7.64721 24.7045C6.75695 23.9255 6.31183 22.6458 6.31183 20.8653C6.31183 19.2702 6.33038 17.7123 6.36747 16.1915C6.44166 14.6335 6.55294 13.057 6.70131 11.462C6.73841 11.0911 6.8126 10.7943 6.92388 10.5717C7.03516 10.3121 7.23917 10.0895 7.53592 9.90405C8.05524 9.57021 8.5931 9.40329 9.14951 9.40329C9.81719 9.40329 10.3365 9.62585 10.7074 10.071C11.1155 10.5161 11.3195 11.054 11.3195 11.6846C11.3195 12.1297 11.2824 12.5934 11.2082 13.0756C11.1711 13.5207 11.1526 13.9658 11.1526 14.411C11.9315 14.3368 12.7105 14.2997 13.4895 14.2997C14.2685 14.2626 15.0474 14.2069 15.8264 14.1327C15.8264 13.5763 15.8264 12.9643 15.8264 12.2966C15.8264 11.6289 15.9006 10.9983 16.049 10.4048C16.1973 9.77422 16.457 9.25491 16.8279 8.84688C17.236 8.43885 17.8109 8.23483 18.5528 8.23483C19.2205 8.23483 19.7398 8.4203 20.1107 8.79124C20.5188 9.12508 20.7228 9.62585 20.7228 10.2935C20.7228 11.1467 20.6671 12.0184 20.5559 12.9087C20.4817 13.7989 20.4446 14.6706 20.4446 15.5238V18.4171C20.4446 19.4557 20.4075 20.4387 20.3333 21.366C20.2962 22.2563 20.1107 23.0353 19.7769 23.703C19.443 24.3706 18.9052 24.9085 18.1633 25.3165C17.4585 25.6875 16.4384 25.8729 15.1031 25.8729H11.5977ZM10.9857 20.6427C10.9857 20.9395 11.0227 21.162 11.0969 21.3104C11.2453 21.3846 11.4679 21.4217 11.7646 21.4217H14.9361C15.3071 21.4217 15.5296 21.3846 15.6038 21.3104C15.678 21.2362 15.7151 21.0137 15.7151 20.6427V18.584C14.9361 18.6582 14.1386 18.7138 13.3226 18.7509C12.5436 18.7509 11.7646 18.788 10.9857 18.8622V20.6427ZM32.463 25.4835C32.463 24.9641 32.463 24.4263 32.463 23.8699C32.463 23.3135 32.4815 22.7756 32.5186 22.2563C31.3316 22.4418 30.1446 22.5716 28.9576 22.6458C27.7706 22.72 26.5836 22.7571 25.3966 22.7571C24.7289 22.7571 24.1911 22.553 23.783 22.145C23.375 21.737 23.171 21.1991 23.171 20.5314C23.171 19.975 23.3564 19.4557 23.7274 18.9735C23.9128 18.7138 24.154 18.5469 24.4507 18.4727C24.7846 18.3614 25.0999 18.3058 25.3966 18.3058C26.5836 18.3058 27.8077 18.2873 29.0689 18.2502C30.3672 18.2131 31.5913 18.0461 32.7412 17.7494C32.7412 17.4897 32.7412 17.2115 32.7412 16.9148C32.7412 16.618 32.7783 16.3398 32.8525 16.0802C31.8138 15.8947 30.7567 15.7834 29.6809 15.7463C28.6423 15.6721 27.5851 15.635 26.5094 15.635C25.7675 15.635 25.2111 15.3939 24.8402 14.9117C24.4693 14.5037 24.2838 14.0029 24.2838 13.4094C24.2838 12.7046 24.4878 12.1668 24.8958 11.7958C25.3039 11.3878 25.8603 11.1838 26.5651 11.1838C27.6408 11.1838 28.735 11.2209 29.8479 11.2951C30.9978 11.3322 32.1106 11.4434 33.1863 11.6289C33.2234 11.1096 33.2605 10.5161 33.2976 9.84841C33.3347 9.14363 33.4274 8.49449 33.5758 7.90099C33.7613 7.27039 34.0395 6.75108 34.4104 6.34305C34.7813 5.89792 35.3377 5.67536 36.0796 5.67536C36.8215 5.67536 37.3408 5.93501 37.6376 6.45433C37.9714 6.93655 38.1383 7.49295 38.1383 8.12355C38.1383 8.82833 38.1012 9.55166 38.0271 10.2935C37.9529 10.9983 37.8972 11.7216 37.8601 12.4635C37.7488 14.6521 37.6747 16.822 37.6376 18.9735C37.6005 21.1249 37.5819 23.2949 37.5819 25.4835C37.5819 25.8915 37.5263 26.281 37.415 26.6519C37.3037 26.9858 37.0997 27.2825 36.8029 27.5422C36.2465 28.0244 35.653 28.2655 35.0224 28.2655C34.1693 28.2655 33.5201 28.0058 33.075 27.4865C32.667 26.9301 32.463 26.2624 32.463 25.4835ZM28.7907 34.4973C27.2327 34.4973 25.6563 34.5344 24.0612 34.6085C22.5033 34.6456 20.9453 34.6642 19.3874 34.6642C18.7197 34.6642 18.2004 34.4231 17.8295 33.9408C17.4585 33.4586 17.2731 32.9022 17.2731 32.2716C17.2731 31.6781 17.4585 31.2145 17.8295 30.8806C18.2375 30.5468 18.7012 30.3428 19.2205 30.2686C20.4446 30.1573 21.6872 30.1016 22.9484 30.1016C24.2467 30.0645 25.5079 30.046 26.732 30.046H29.0689C30.5897 30.046 31.7953 30.454 32.6855 31.2701C33.6129 32.0862 34.0766 33.2732 34.0766 34.8311C34.0766 36.1294 33.8725 37.2978 33.4645 38.3365C33.0565 39.338 32.1477 40.0428 30.7381 40.4508L20.222 43.6223C19.6285 43.8078 19.3318 44.1417 19.3318 44.6239C19.3318 45.069 19.5914 45.2916 20.1107 45.2916C24.1169 45.2916 28.123 45.1803 32.1291 44.9577C32.6855 44.9206 33.2605 44.865 33.854 44.7908C34.4475 44.7166 35.0224 44.6795 35.5789 44.6795C36.2465 44.6795 36.7659 44.9206 37.1368 45.4028C37.5077 45.8851 37.6932 46.4415 37.6932 47.0721C37.6932 47.5914 37.5819 48.018 37.3594 48.3518C37.1368 48.7227 36.7659 48.9453 36.2465 49.0195C34.1693 49.2791 32.0735 49.4646 29.9591 49.5759C27.8819 49.6872 25.8046 49.7428 23.7274 49.7428H19.8325C18.1633 49.7428 16.8836 49.3162 15.9933 48.4631C15.1031 47.6099 14.6579 46.3302 14.6579 44.6239C14.6579 43.4369 15.0103 42.3797 15.7151 41.4524C16.457 40.4879 17.3843 39.8388 18.4972 39.5049L29.0689 36.3334C29.2173 36.2592 29.31 36.2036 29.3471 36.1665C29.3842 36.0923 29.4027 35.981 29.4027 35.8326C29.4027 35.573 29.4027 35.2948 29.4027 34.998C29.4027 34.6642 29.1987 34.4973 28.7907 34.4973Z" fill="white"/>
<path d="M13.2482 14.7104L14.8856 17.7625L18.5473 18.2549L15.8978 20.6294L16.5231 23.9838L13.2482 22.3992L9.97336 23.9838L10.5987 20.6294L7.9491 18.2549L11.6108 17.7625L13.2482 14.7104Z" fill="#FFC267"/>
<path fill-rule="evenodd" clip-rule="evenodd" d="M149.178 70.7342C124.568 68.2959 96.6322 77.9754 78.1344 84.6123C76.9847 85.0248 75.7278 85.0275 74.5764 84.6199C65.4604 81.3927 53.2532 77.2833 40.7332 74.2981C28.1031 71.2866 15.6661 69.5492 5.93347 70.7219C3.02787 71.0721 0.388585 69.0004 0.0384638 66.0948C-0.311657 63.1892 1.75997 60.5499 4.66557 60.1998C16.3043 58.7974 30.2243 60.897 43.1913 63.9888C55.4438 66.9103 67.3037 70.8343 76.3302 74.0008C94.5913 67.4712 123.725 57.5623 150.223 60.1876C153.135 60.4761 155.262 63.071 154.974 65.9833C154.685 68.8957 152.09 71.0227 149.178 70.7342Z" fill="#FFC267"/>
<path fill-rule="evenodd" clip-rule="evenodd" d="M149.178 70.7342C124.568 68.2959 96.6322 77.9754 78.1344 84.6123C76.9847 85.0248 75.7278 85.0275 74.5764 84.6199C65.4604 81.3927 53.2532 77.2833 40.7332 74.2981C28.1031 71.2866 15.6661 69.5492 5.93347 70.7219C3.02787 71.0721 0.388585 69.0004 0.0384638 66.0948C-0.311657 63.1892 1.75997 60.5499 4.66557 60.1998C16.3043 58.7974 30.2243 60.897 43.1913 63.9888C55.4438 66.9103 67.3037 70.8343 76.3302 74.0008C94.5913 67.4712 123.725 57.5623 150.223 60.1876C153.135 60.4761 155.262 63.071 154.974 65.9833C154.685 68.8957 152.09 71.0227 149.178 70.7342Z" fill="#FFC267"/>
</svg>
