<svg width="16" height="16" viewBox="0 0 16 16" fill="none" xmlns="http://www.w3.org/2000/svg">
<path d="M14.3437 7.0625L10.3787 5.62125L8.93748 1.65625C8.86644 1.46487 8.73854 1.29982 8.57095 1.18326C8.40336 1.06671 8.20411 1.00424 7.99998 1.00424C7.79584 1.00424 7.59659 1.06671 7.42901 1.18326C7.26142 1.29982 7.13351 1.46487 7.06248 1.65625L5.62123 5.62125L1.65623 7.0625C1.46485 7.13354 1.2998 7.26144 1.18324 7.42903C1.06669 7.59662 1.00421 7.79586 1.00421 8C1.00421 8.20414 1.06669 8.40338 1.18324 8.57097C1.2998 8.73856 1.46485 8.86646 1.65623 8.9375L5.62123 10.3794L7.06248 14.3438C7.13351 14.5351 7.26142 14.7002 7.42901 14.8167C7.59659 14.9333 7.79584 14.9958 7.99998 14.9958C8.20411 14.9958 8.40336 14.9333 8.57095 14.8167C8.73854 14.7002 8.86644 14.5351 8.93748 14.3438L10.3794 10.3787L14.3437 8.9375C14.5351 8.86646 14.7002 8.73856 14.8167 8.57097C14.9333 8.40338 14.9957 8.20414 14.9957 8C14.9957 7.79586 14.9333 7.59662 14.8167 7.42903C14.7002 7.26144 14.5351 7.13354 14.3437 7.0625ZM9.81748 9.51875C9.74889 9.54372 9.68661 9.58341 9.635 9.63502C9.58339 9.68663 9.5437 9.74892 9.51873 9.8175L7.99998 13.9937L6.48123 9.8175C6.45625 9.74892 6.41657 9.68663 6.36496 9.63502C6.31335 9.58341 6.25106 9.54372 6.18248 9.51875L2.00623 8L6.18248 6.48125C6.25106 6.45628 6.31335 6.41659 6.36496 6.36498C6.41657 6.31337 6.45625 6.25108 6.48123 6.1825L7.99998 2.00625L9.51873 6.1825C9.5437 6.25108 9.58339 6.31337 9.635 6.36498C9.68661 6.41659 9.74889 6.45628 9.81748 6.48125L13.9937 8L9.81748 9.51875Z" fill="#FFC267"/>
</svg>
