<svg width="10" height="10" viewBox="0 0 10 10" fill="none" xmlns="http://www.w3.org/2000/svg">
<g clip-path="url(#clip0_148_1815)">
<path d="M9.37498 5C9.37597 5.12818 9.33701 5.25348 9.2635 5.35849C9.18999 5.4635 9.0856 5.543 8.96482 5.58594L6.4867 6.48711L5.58592 8.96484C5.54152 9.08445 5.46158 9.18761 5.35683 9.26046C5.25209 9.33331 5.12756 9.37235 4.99998 9.37235C4.87239 9.37235 4.74786 9.33331 4.64312 9.26046C4.53838 9.18761 4.45844 9.08445 4.41404 8.96484L3.51326 6.48672L1.03513 5.58594C0.915523 5.54154 0.812365 5.4616 0.739518 5.35686C0.666671 5.25211 0.627625 5.12758 0.627625 5C0.627625 4.87242 0.666671 4.74789 0.739518 4.64314C0.812365 4.5384 0.915523 4.45846 1.03513 4.41406L3.51326 3.51328L4.41404 1.03516C4.45844 0.915546 4.53838 0.812388 4.64312 0.739541C4.74786 0.666694 4.87239 0.627647 4.99998 0.627647C5.12756 0.627647 5.25209 0.666694 5.35683 0.739541C5.46158 0.812388 5.54152 0.915546 5.58592 1.03516L6.48709 3.51328L8.96482 4.41406C9.0856 4.457 9.18999 4.5365 9.2635 4.64151C9.33701 4.74652 9.37597 4.87182 9.37498 5Z" fill="#FFC267"/>
</g>
<defs>
<clipPath id="clip0_148_1815">
<rect width="10" height="10" fill="white"/>
</clipPath>
</defs>
</svg>
