<svg width="40" height="40" viewBox="0 0 40 40" fill="none" xmlns="http://www.w3.org/2000/svg">
<path fill-rule="evenodd" clip-rule="evenodd" d="M4.79778 4.79781C5.73546 3.86013 7.00723 3.33334 8.33331 3.33334H13.3333C14.2538 3.33334 15 4.07954 15 5.00001C15 5.92049 14.2538 6.66668 13.3333 6.66668H8.33331C7.89129 6.66668 7.46736 6.84227 7.1548 7.15483C6.84224 7.46739 6.66665 7.89132 6.66665 8.33334V13.3333C6.66665 14.2538 5.92045 15 4.99998 15C4.07951 15 3.33331 14.2538 3.33331 13.3333V8.33334C3.33331 7.00726 3.8601 5.73549 4.79778 4.79781ZM25 5.00001C25 4.07954 25.7462 3.33334 26.6666 3.33334H31.6666C32.9927 3.33334 34.2645 3.86013 35.2022 4.79781C36.1399 5.73549 36.6666 7.00726 36.6666 8.33334V13.3333C36.6666 14.2538 35.9205 15 35 15C34.0795 15 33.3333 14.2538 33.3333 13.3333V8.33334C33.3333 7.89132 33.1577 7.46739 32.8452 7.15483C32.5326 6.84227 32.1087 6.66668 31.6666 6.66668H26.6666C25.7462 6.66668 25 5.92049 25 5.00001ZM4.99998 25C5.92045 25 6.66665 25.7462 6.66665 26.6667V31.6667C6.66665 32.1087 6.84224 32.5326 7.1548 32.8452C7.46736 33.1578 7.89129 33.3333 8.33331 33.3333H13.3333C14.2538 33.3333 15 34.0795 15 35C15 35.9205 14.2538 36.6667 13.3333 36.6667H8.33331C7.00723 36.6667 5.73546 36.1399 4.79778 35.2022C3.8601 34.2645 3.33331 32.9928 3.33331 31.6667V26.6667C3.33331 25.7462 4.07951 25 4.99998 25ZM35 25C35.9205 25 36.6666 25.7462 36.6666 26.6667V31.6667C36.6666 32.9928 36.1399 34.2645 35.2022 35.2022C34.2645 36.1399 32.9927 36.6667 31.6666 36.6667H26.6666C25.7462 36.6667 25 35.9205 25 35C25 34.0795 25.7462 33.3333 26.6666 33.3333H31.6666C32.1087 33.3333 32.5326 33.1578 32.8452 32.8452C33.1577 32.5326 33.3333 32.1087 33.3333 31.6667V26.6667C33.3333 25.7462 34.0795 25 35 25Z" fill="black"/>
</svg>
