<svg width="30" height="30" viewBox="0 0 30 30" fill="none" xmlns="http://www.w3.org/2000/svg">
<path fill-rule="evenodd" clip-rule="evenodd" d="M10 1.25C9.76641 1.25 9.54778 1.31407 9.36074 1.4256L0.629826 6.4147C0.240358 6.63725 0 7.05143 0 7.5V27.5C0 27.9456 0.237198 28.3575 0.622591 28.5811C1.00798 28.8048 1.4833 28.8064 1.87017 28.5853L10.0393 23.9172L19.4184 28.6068C19.5807 28.6922 19.7641 28.743 19.9586 28.7493C19.9724 28.7498 19.9862 28.75 20 28.75C20.2336 28.75 20.4522 28.6859 20.6393 28.5744L29.3702 23.5853C29.7596 23.3628 30 22.9486 30 22.5V2.5C30 2.05441 29.7628 1.64252 29.3774 1.41886C28.992 1.19521 28.5167 1.19362 28.1298 1.4147L19.9607 6.08279L10.5815 1.39322C10.4078 1.30176 10.21 1.25 10 1.25ZM21.25 25.346L27.5 21.7746V4.65398L21.25 8.2254V25.346ZM18.75 8.27254L11.25 4.52254V21.7275L18.75 25.4775V8.27254ZM2.5 8.2254L8.75 4.65398V21.7746L2.5 25.346V8.2254Z" fill="white"/>
</svg>
