<svg width="372" height="183" viewBox="0 0 372 183" fill="none" xmlns="http://www.w3.org/2000/svg">
<circle cx="160.636" cy="25.3636" r="4.04348" fill="white" fill-opacity="0.2"/>
<circle cx="90.0593" cy="4.04348" r="4.04348" fill="white" fill-opacity="0.2"/>
<circle cx="4.04348" cy="33.4506" r="4.04348" fill="white" fill-opacity="0.2"/>
<circle cx="78.2965" cy="178.281" r="4.04348" fill="white" fill-opacity="0.2"/>
<circle cx="228.273" cy="165.783" r="4.04348" fill="white" fill-opacity="0.2"/>
<circle cx="164.312" cy="157.696" r="4.04348" fill="white" fill-opacity="0.2"/>
<circle cx="367.957" cy="170.194" r="4.04348" fill="white" fill-opacity="0.2"/>
<circle cx="276.794" cy="12.1305" r="4.04348" fill="white" fill-opacity="0.2"/>
<circle cx="330.462" cy="29.0395" r="4.04348" fill="white" fill-opacity="0.2"/>
<circle cx="300.32" cy="149.609" r="4.04348" fill="white" fill-opacity="0.2"/>
<path d="M227.538 166.518L164.68 158.063L77.5613 179.383L3.30829 33.083L89.6917 4.04346L160.269 24.996M227.538 166.518L301.423 149.609L367.589 171.296L330.83 28.3043L275.692 11.3952L160.269 24.996M227.538 166.518L160.269 24.996" stroke="white" stroke-opacity="0.2"/>
</svg>
