<svg width="30" height="30" viewBox="0 0 30 30" fill="none" xmlns="http://www.w3.org/2000/svg">
<path fill-rule="evenodd" clip-rule="evenodd" d="M15.7674 1.51331C15.316 1.16223 14.684 1.16223 14.2326 1.51331L2.98257 10.2633C2.67809 10.5001 2.5 10.8643 2.5 11.25V25C2.5 25.9946 2.89509 26.9484 3.59835 27.6517C4.30161 28.3549 5.25544 28.75 6.25 28.75H11.25H18.75H23.75C24.7446 28.75 25.6984 28.3549 26.4017 27.6517C27.1049 26.9484 27.5 25.9946 27.5 25V11.25C27.5 10.8643 27.3219 10.5001 27.0174 10.2633L15.7674 1.51331ZM20 26.25H23.75C24.0815 26.25 24.3995 26.1183 24.6339 25.8839C24.8683 25.6495 25 25.3315 25 25V11.8614L15 4.08358L5 11.8614V25C5 25.3315 5.1317 25.6495 5.36612 25.8839C5.60054 26.1183 5.91848 26.25 6.25 26.25H10V15C10 14.3096 10.5596 13.75 11.25 13.75H18.75C19.4404 13.75 20 14.3096 20 15V26.25ZM12.5 26.25V16.25H17.5V26.25H12.5Z" fill="white"/>
</svg>
