<svg width="30" height="30" viewBox="0 0 30 30" fill="none" xmlns="http://www.w3.org/2000/svg">
<path fill-rule="evenodd" clip-rule="evenodd" d="M15 1.25C13.7185 1.25 12.4554 1.63752 11.4997 2.51835C10.5273 3.41456 10 4.70526 10 6.25C10 7.77972 10.405 8.61884 10.7897 9.29205L10.8518 9.40033C11.126 9.87764 11.25 10.0934 11.25 10.625V15H8.125C6.96468 15 5.85188 15.4609 5.03141 16.2814C4.21094 17.1019 3.75 18.2147 3.75 19.375V21.25C3.75 21.913 4.01339 22.5489 4.48223 23.0178C4.95108 23.4866 5.58696 23.75 6.25 23.75H23.75C24.413 23.75 25.0489 23.4866 25.5178 23.0178C25.9866 22.5489 26.25 21.913 26.25 21.25V19.375C26.25 18.2238 25.797 17.1043 24.9714 16.2786L24.9703 16.2775C24.5632 15.8715 24.0802 15.5497 23.5487 15.3305C23.0175 15.1114 22.4485 14.9991 21.874 15H18.75V10.625C18.75 10.0934 18.874 9.87764 19.1482 9.40033L19.2103 9.29205C19.595 8.61884 20 7.77972 20 6.25C20 4.92392 19.4732 3.65215 18.5355 2.71447C17.5979 1.77678 16.3261 1.25 15 1.25ZM16.25 15V10.625C16.25 9.41407 16.6654 8.69767 16.9709 8.17097L16.971 8.17078C16.9946 8.13 17.0176 8.09035 17.0397 8.0517C17.28 7.63116 17.5 7.22028 17.5 6.25C17.5 5.58696 17.2366 4.95107 16.7678 4.48223C16.2989 4.01339 15.663 3.75 15 3.75C14.2065 3.75 13.5946 3.98748 13.194 4.35665C12.8102 4.71044 12.5 5.29474 12.5 6.25C12.5 7.22028 12.72 7.63116 12.9603 8.0517C12.9824 8.0904 13.0054 8.13009 13.0291 8.17093L13.0291 8.17097C13.3346 8.69767 13.75 9.41406 13.75 10.625V15H16.25ZM12.5 17.5L8.125 17.5C7.62772 17.5 7.15081 17.6975 6.79917 18.0492C6.44754 18.4008 6.25 18.8777 6.25 19.375V21.25H23.75V19.375C23.75 18.8765 23.5532 18.3963 23.2042 18.047C23.0299 17.8732 22.823 17.7355 22.5955 17.6416C22.3677 17.5477 22.1236 17.4996 21.8772 17.5L17.5 17.5H12.5ZM6.25 26.25C5.55964 26.25 5 26.8096 5 27.5C5 28.1904 5.55964 28.75 6.25 28.75H23.75C24.4404 28.75 25 28.1904 25 27.5C25 26.8096 24.4404 26.25 23.75 26.25H6.25Z" fill="white"/>
</svg>
