<svg width="30" height="30" viewBox="0 0 30 30" fill="none" xmlns="http://www.w3.org/2000/svg">
<path fill-rule="evenodd" clip-rule="evenodd" d="M11.25 8.75C11.25 6.67893 12.9289 5 15 5C17.0711 5 18.75 6.67893 18.75 8.75C18.75 10.8211 17.0711 12.5 15 12.5C12.9289 12.5 11.25 10.8211 11.25 8.75ZM15 2.5C11.5482 2.5 8.75 5.29822 8.75 8.75C8.75 12.2018 11.5482 15 15 15C18.4518 15 21.25 12.2018 21.25 8.75C21.25 5.29822 18.4518 2.5 15 2.5ZM10 17.5C8.3424 17.5 6.75268 18.1585 5.58058 19.3306C4.40848 20.5027 3.75 22.0924 3.75 23.75V26.25C3.75 26.9404 4.30964 27.5 5 27.5C5.69036 27.5 6.25 26.9404 6.25 26.25V23.75C6.25 22.7554 6.64509 21.8016 7.34835 21.0984C8.05161 20.3951 9.00544 20 10 20H20C20.9946 20 21.9484 20.3951 22.6516 21.0984C23.3549 21.8016 23.75 22.7554 23.75 23.75V26.25C23.75 26.9404 24.3096 27.5 25 27.5C25.6904 27.5 26.25 26.9404 26.25 26.25V23.75C26.25 22.0924 25.5915 20.5027 24.4194 19.3306C23.2473 18.1585 21.6576 17.5 20 17.5H10Z" fill="white"/>
</svg>
