<svg width="46" height="45" viewBox="0 0 46 45" fill="none" xmlns="http://www.w3.org/2000/svg">
<path d="M22.25 17.8631C22.1586 18.0477 22.0239 18.2074 21.8574 18.3285C21.6909 18.4496 21.4975 18.5286 21.2938 18.5588L18.5675 18.9563L20.54 20.8781C20.6873 21.0222 20.7975 21.1997 20.8612 21.3957C20.9249 21.5916 20.9401 21.8 20.9056 22.0031L20.4387 24.7181L22.8763 23.4356C23.059 23.3397 23.2623 23.2896 23.4688 23.2896C23.6752 23.2896 23.8785 23.3397 24.0613 23.4356L26.4988 24.7181L26.0319 22.0031C25.9974 21.8 26.0126 21.5916 26.0763 21.3957C26.14 21.1997 26.2502 21.0222 26.3975 20.8781L28.37 18.9563L25.6456 18.5588C25.4421 18.5288 25.2488 18.4501 25.0823 18.3293C24.9158 18.2085 24.781 18.0492 24.6894 17.865L23.4688 15.3938L22.25 17.8631ZM8 8.4375C8 7.1943 8.49386 6.00201 9.37294 5.12294C10.252 4.24386 11.4443 3.75 12.6875 3.75H34.25C34.8656 3.75 35.4751 3.87125 36.0438 4.10681C36.6125 4.34238 37.1293 4.68766 37.5646 5.12294C37.9998 5.55821 38.3451 6.07496 38.5807 6.64367C38.8163 7.21239 38.9375 7.82193 38.9375 8.4375V35.1563C38.9375 35.5292 38.7893 35.8869 38.5256 36.1506C38.2619 36.4143 37.9042 36.5625 37.5312 36.5625H10.8125C10.8125 37.0598 11.01 37.5367 11.3617 37.8883C11.7133 38.24 12.1902 38.4375 12.6875 38.4375H37.5312C37.9042 38.4375 38.2619 38.5857 38.5256 38.8494C38.7893 39.1131 38.9375 39.4708 38.9375 39.8438C38.9375 40.2167 38.7893 40.5744 38.5256 40.8381C38.2619 41.1018 37.9042 41.25 37.5312 41.25H12.6875C11.4443 41.25 10.252 40.7561 9.37294 39.8771C8.49386 38.998 8 37.8057 8 36.5625V8.4375ZM20.2662 16.14L15.6537 16.8094C15.4186 16.843 15.1976 16.9418 15.0157 17.0946C14.8339 17.2474 14.6985 17.4481 14.6249 17.674C14.5513 17.8998 14.5425 18.1418 14.5994 18.3724C14.6563 18.603 14.7767 18.8131 14.9469 18.9788L18.2844 22.2319L17.4969 26.8256C17.4562 27.0597 17.4819 27.3004 17.571 27.5206C17.6602 27.7408 17.8093 27.9316 18.0014 28.0713C18.1934 28.2111 18.4209 28.2943 18.6578 28.3114C18.8947 28.3285 19.1317 28.2789 19.3419 28.1681L23.4688 25.9988L27.5938 28.1681C27.8038 28.2792 28.0408 28.3292 28.2779 28.3124C28.5149 28.2956 28.7425 28.2127 28.9348 28.0731C29.1271 27.9335 29.2764 27.7428 29.3658 27.5226C29.4552 27.3025 29.4812 27.0617 29.4406 26.8275L28.6531 22.2338L31.9906 18.9788C32.1608 18.8132 32.2812 18.6033 32.3382 18.3728C32.3952 18.1423 32.3865 17.9005 32.3131 17.6747C32.2398 17.4489 32.1046 17.2482 31.923 17.0952C31.7414 16.9423 31.5206 16.8433 31.2856 16.8094L26.6731 16.14L24.6106 11.9588C24.5058 11.7455 24.3434 11.5659 24.1418 11.4403C23.9401 11.3147 23.7073 11.2482 23.4697 11.2482C23.2321 11.2482 22.9993 11.3147 22.7976 11.4403C22.596 11.5659 22.4335 11.7455 22.3288 11.9588L20.2662 16.14Z" fill="#FFC267"/>
</svg>
