<svg width="46" height="45" viewBox="0 0 46 45" fill="none" xmlns="http://www.w3.org/2000/svg">
<path d="M20.2662 16.14L22.3288 11.9588C22.4337 11.746 22.5961 11.5669 22.7976 11.4417C22.999 11.3164 23.2315 11.2501 23.4688 11.2501C23.706 11.2501 23.9385 11.3164 24.1399 11.4417C24.3414 11.5669 24.5038 11.746 24.6087 11.9588L26.6712 16.14L31.2856 16.8094C32.3281 16.9594 32.7444 18.2419 31.9906 18.9788L28.6531 22.2319L29.4406 26.8256C29.4813 27.0597 29.4556 27.3004 29.3665 27.5206C29.2773 27.7408 29.1282 27.9316 28.9361 28.0713C28.7441 28.2111 28.5166 28.2943 28.2797 28.3114C28.0428 28.3285 27.8058 28.2789 27.5956 28.1681L23.4688 25.9988L19.3438 28.1681C19.1337 28.2792 18.8967 28.3292 18.6596 28.3124C18.4226 28.2956 18.195 28.2127 18.0027 28.0731C17.8104 27.9335 17.6611 27.7428 17.5717 27.5226C17.4823 27.3025 17.4563 27.0617 17.4969 26.8275L18.2844 22.2338L14.9469 18.9788C14.7767 18.8132 14.6563 18.6033 14.5993 18.3728C14.5423 18.1423 14.551 17.9005 14.6244 17.6747C14.6977 17.4489 14.8329 17.2482 15.0145 17.0952C15.1961 16.9423 15.4169 16.8433 15.6519 16.8094L20.2662 16.14ZM22.25 17.865C22.1584 18.0492 22.0236 18.2085 21.8571 18.3293C21.6906 18.4501 21.4973 18.5288 21.2938 18.5588L18.5675 18.9563L20.54 20.8781C20.6873 21.0222 20.7975 21.1997 20.8612 21.3957C20.9249 21.5916 20.9401 21.8 20.9056 22.0031L20.4387 24.7181L22.8763 23.4356C23.059 23.3397 23.2623 23.2896 23.4688 23.2896C23.6752 23.2896 23.8785 23.3397 24.0613 23.4356L26.4988 24.7181L26.0319 22.0031C25.9974 21.8 26.0126 21.5916 26.0763 21.3957C26.14 21.1997 26.2502 21.0222 26.3975 20.8781L28.37 18.9563L25.6456 18.5588C25.4421 18.5288 25.2488 18.4501 25.0823 18.3293C24.9158 18.2085 24.781 18.0492 24.6894 17.865L23.4688 15.3938L22.25 17.865ZM12.6875 3.75C11.4443 3.75 10.252 4.24386 9.37294 5.12294C8.49386 6.00201 8 7.1943 8 8.4375V36.5625C8 37.8057 8.49386 38.998 9.37294 39.8771C10.252 40.7561 11.4443 41.25 12.6875 41.25H37.5312C37.9042 41.25 38.2619 41.1018 38.5256 40.8381C38.7893 40.5744 38.9375 40.2167 38.9375 39.8438C38.9375 39.4708 38.7893 39.1131 38.5256 38.8494C38.2619 38.5857 37.9042 38.4375 37.5312 38.4375H12.6875C12.1902 38.4375 11.7133 38.24 11.3617 37.8883C11.01 37.5367 10.8125 37.0598 10.8125 36.5625H37.5312C37.9042 36.5625 38.2619 36.4143 38.5256 36.1506C38.7893 35.8869 38.9375 35.5292 38.9375 35.1563V8.4375C38.9375 7.82193 38.8163 7.21239 38.5807 6.64367C38.3451 6.07496 37.9998 5.55821 37.5646 5.12294C37.1293 4.68766 36.6125 4.34238 36.0438 4.10681C35.4751 3.87125 34.8656 3.75 34.25 3.75H12.6875ZM36.125 33.75H10.8125V8.4375C10.8125 7.94022 11.01 7.46331 11.3617 7.11168C11.7133 6.76004 12.1902 6.5625 12.6875 6.5625H34.25C34.7473 6.5625 35.2242 6.76004 35.5758 7.11168C35.9275 7.46331 36.125 7.94022 36.125 8.4375V33.75Z" fill="white" fill-opacity="0.4"/>
</svg>
