<svg width="24" height="21" viewBox="0 0 24 21" fill="none" xmlns="http://www.w3.org/2000/svg">
<path fill-rule="evenodd" clip-rule="evenodd" d="M14.4619 0.49325C15.2507 0.166403 16.0961 -0.00182533 16.95 -0.00182533C17.8038 -0.00182533 18.6493 0.166403 19.4381 0.49325C20.2268 0.820036 20.9434 1.29898 21.5469 1.90273C22.1507 2.50628 22.63 3.22318 22.9567 4.01185C23.2836 4.80067 23.4518 5.64615 23.4518 6.5C23.4518 7.35385 23.2836 8.19933 22.9567 8.98815C22.6299 9.77689 22.1509 10.4935 21.5471 11.0971C21.547 11.0972 21.5472 11.0971 21.5471 11.0971L12.7071 19.9371C12.3166 20.3276 11.6834 20.3276 11.2929 19.9371L2.45289 11.0971C1.23366 9.87788 0.548706 8.22425 0.548706 6.5C0.548706 4.77575 1.23366 3.12212 2.45289 1.90289C3.67212 0.683665 5.32575 -0.00129056 7.05 -0.00129056C8.77425 -0.00129056 10.4279 0.683665 11.6471 1.90289L12 2.25579L12.3527 1.90306C12.3527 1.90312 12.3528 1.903 12.3527 1.90306C12.9563 1.29923 13.6731 0.820066 14.4619 0.49325ZM16.95 1.99817C16.3589 1.99817 15.7735 2.11464 15.2274 2.34092C14.6813 2.5672 14.1852 2.89885 13.7673 3.31694L12.7071 4.37711C12.3166 4.76763 11.6834 4.76763 11.2929 4.37711L10.2329 3.31711C9.38873 2.47295 8.24381 1.99871 7.05 1.99871C5.85618 1.99871 4.71126 2.47295 3.8671 3.31711C3.02295 4.16126 2.54871 5.30618 2.54871 6.5C2.54871 7.69382 3.02295 8.83874 3.8671 9.68289L12 17.8158L20.1329 9.68289C20.551 9.265 20.8828 8.76867 21.1091 8.22256C21.3354 7.67646 21.4518 7.09113 21.4518 6.5C21.4518 5.90887 21.3354 5.32354 21.1091 4.77744C20.8828 4.23133 20.5511 3.73516 20.1331 3.31727C19.7152 2.89919 19.2187 2.5672 18.6726 2.34092C18.1265 2.11464 17.5411 1.99817 16.95 1.99817Z" fill="#FFC267"/>
</svg>
